<svg xmlns="http://www.w3.org/2000/svg" viewBox="0 0 190 28" fill="none">
  <!-- Lucide shield-check icon scaled to 28px, in light blue -->
  <g transform="translate(1, 1) scale(1.08)">
    <path d="M20 13c0 5-3.5 7.5-7.66 8.95a1 1 0 0 1-.67-.01C7.5 20.5 4 18 4 13V6a1 1 0 0 1 1-1c2 0 4.5-1.2 6.24-2.72a1.17 1.17 0 0 1 1.52 0C14.51 3.81 17 5 19 5a1 1 0 0 1 1 1z" stroke="#38BDF8" stroke-width="2" stroke-linecap="round" stroke-linejoin="round" fill="none"/>
    <path d="m9 12 2 2 4-4" stroke="#38BDF8" stroke-width="2" stroke-linecap="round" stroke-linejoin="round" fill="none"/>
  </g>
  <!-- Brand text -->
  <text x="34" y="22.5" font-family="'Space Grotesk', system-ui, sans-serif" font-size="28" font-weight="700" fill="white">Trailproof</text>
</svg>
