<svg xmlns="http://www.w3.org/2000/svg" viewBox="0 0 840 920" fill="none">
  <defs>
    <!-- Background gradient -->
    <linearGradient id="bgGrad" x1="0" y1="0" x2="840" y2="920" gradientUnits="userSpaceOnUse">
      <stop offset="0%" stop-color="#0f172a"/>
      <stop offset="50%" stop-color="#1e293b"/>
      <stop offset="100%" stop-color="#0f172a"/>
    </linearGradient>

    <!-- Node gradients -->
    <linearGradient id="appGrad" x1="0" y1="0" x2="1" y2="1">
      <stop offset="0%" stop-color="#6366f1"/>
      <stop offset="100%" stop-color="#8b5cf6"/>
    </linearGradient>
    <linearGradient id="validateGrad" x1="0" y1="0" x2="1" y2="1">
      <stop offset="0%" stop-color="#0EA5E9"/>
      <stop offset="100%" stop-color="#38BDF8"/>
    </linearGradient>
    <linearGradient id="chainGrad" x1="0" y1="0" x2="1" y2="1">
      <stop offset="0%" stop-color="#14b8a6"/>
      <stop offset="100%" stop-color="#06b6d4"/>
    </linearGradient>
    <linearGradient id="signGrad" x1="0" y1="0" x2="1" y2="1">
      <stop offset="0%" stop-color="#f59e0b"/>
      <stop offset="100%" stop-color="#eab308"/>
    </linearGradient>
    <linearGradient id="storeGrad" x1="0" y1="0" x2="1" y2="1">
      <stop offset="0%" stop-color="#22c55e"/>
      <stop offset="100%" stop-color="#10b981"/>
    </linearGradient>
    <linearGradient id="verifyGrad" x1="0" y1="0" x2="1" y2="0">
      <stop offset="0%" stop-color="#ef4444"/>
      <stop offset="50%" stop-color="#f97316"/>
      <stop offset="100%" stop-color="#ef4444"/>
    </linearGradient>
    <linearGradient id="auditGrad" x1="0" y1="0" x2="1" y2="0">
      <stop offset="0%" stop-color="#0EA5E9"/>
      <stop offset="50%" stop-color="#38BDF8"/>
      <stop offset="100%" stop-color="#0EA5E9"/>
    </linearGradient>

    <!-- Store type colors -->
    <linearGradient id="memGrad" x1="0" y1="0" x2="1" y2="1">
      <stop offset="0%" stop-color="#22c55e"/>
      <stop offset="100%" stop-color="#10b981"/>
    </linearGradient>
    <linearGradient id="jsonlGrad" x1="0" y1="0" x2="1" y2="1">
      <stop offset="0%" stop-color="#38BDF8"/>
      <stop offset="100%" stop-color="#0EA5E9"/>
    </linearGradient>

    <!-- Glow filters -->
    <filter id="glowIndigo" x="-20%" y="-20%" width="140%" height="140%">
      <feGaussianBlur stdDeviation="6" result="b"/>
      <feFlood flood-color="#6366f1" flood-opacity="0.3" result="c"/>
      <feComposite in="c" in2="b" operator="in" result="s"/>
      <feMerge><feMergeNode in="s"/><feMergeNode in="SourceGraphic"/></feMerge>
    </filter>
    <filter id="glowBlue" x="-20%" y="-20%" width="140%" height="140%">
      <feGaussianBlur stdDeviation="6" result="b"/>
      <feFlood flood-color="#0EA5E9" flood-opacity="0.3" result="c"/>
      <feComposite in="c" in2="b" operator="in" result="s"/>
      <feMerge><feMergeNode in="s"/><feMergeNode in="SourceGraphic"/></feMerge>
    </filter>
    <filter id="glowTeal" x="-20%" y="-20%" width="140%" height="140%">
      <feGaussianBlur stdDeviation="6" result="b"/>
      <feFlood flood-color="#14b8a6" flood-opacity="0.3" result="c"/>
      <feComposite in="c" in2="b" operator="in" result="s"/>
      <feMerge><feMergeNode in="s"/><feMergeNode in="SourceGraphic"/></feMerge>
    </filter>
    <filter id="glowAmber" x="-20%" y="-20%" width="140%" height="140%">
      <feGaussianBlur stdDeviation="6" result="b"/>
      <feFlood flood-color="#f59e0b" flood-opacity="0.3" result="c"/>
      <feComposite in="c" in2="b" operator="in" result="s"/>
      <feMerge><feMergeNode in="s"/><feMergeNode in="SourceGraphic"/></feMerge>
    </filter>
    <filter id="glowGreen" x="-20%" y="-20%" width="140%" height="140%">
      <feGaussianBlur stdDeviation="5" result="b"/>
      <feFlood flood-color="#22c55e" flood-opacity="0.25" result="c"/>
      <feComposite in="c" in2="b" operator="in" result="s"/>
      <feMerge><feMergeNode in="s"/><feMergeNode in="SourceGraphic"/></feMerge>
    </filter>
    <filter id="glowRed" x="-20%" y="-20%" width="140%" height="140%">
      <feGaussianBlur stdDeviation="6" result="b"/>
      <feFlood flood-color="#ef4444" flood-opacity="0.3" result="c"/>
      <feComposite in="c" in2="b" operator="in" result="s"/>
      <feMerge><feMergeNode in="s"/><feMergeNode in="SourceGraphic"/></feMerge>
    </filter>

    <!-- Dot pattern -->
    <pattern id="dots" x="0" y="0" width="20" height="20" patternUnits="userSpaceOnUse">
      <circle cx="2" cy="2" r="0.6" fill="#334155" opacity="0.4"/>
    </pattern>
  </defs>

  <style>
    text { font-family: 'Inter', 'SF Pro Display', system-ui, -apple-system, sans-serif; }
    .step-label { font-size: 9px; font-weight: 700; letter-spacing: 0.12em; }
    .node-title { font-size: 15px; font-weight: 700; }
    .node-sub { font-size: 10px; font-weight: 500; }
    .badge-text { font-size: 9px; font-weight: 600; }
    .flow-dash {
      stroke-dasharray: 5,4;
      fill: none;
      stroke-linecap: round;
      animation: dash-flow 1.2s linear infinite;
    }
    .flow-solid { fill: none; stroke-linecap: round; }
    @keyframes dash-flow {
      to { stroke-dashoffset: -18; }
    }
  </style>

  <!-- ══════════════ BACKGROUND ══════════════ -->
  <rect width="840" height="920" fill="url(#bgGrad)"/>
  <rect width="840" height="920" fill="url(#dots)"/>

  <!-- Subtle center line -->
  <line x1="420" y1="0" x2="420" y2="920" stroke="#1e293b" stroke-width="0.5" opacity="0.4"/>


  <!-- ══════════════════════════════════════════════ -->
  <!-- ROW 1: YOUR APP                               -->
  <!-- ══════════════════════════════════════════════ -->
  <text x="315" y="30" class="step-label" fill="#6366f1">STEP 1</text>
  <g filter="url(#glowIndigo)">
    <rect x="295" y="36" width="250" height="56" rx="14" fill="url(#appGrad)" opacity="0.12"/>
    <rect x="295" y="36" width="250" height="56" rx="14" fill="none" stroke="#6366f1" stroke-width="1.5"/>
    <!-- App icon -->
    <rect x="318" y="50" width="20" height="16" rx="4" fill="none" stroke="#a5b4fc" stroke-width="1.4"/>
    <circle cx="324" cy="58" r="2" fill="#a5b4fc"/>
    <circle cx="332" cy="58" r="2" fill="#a5b4fc"/>
    <line x1="328" y1="66" x2="328" y2="70" stroke="#a5b4fc" stroke-width="1.4"/>
    <line x1="322" y1="70" x2="334" y2="70" stroke="#a5b4fc" stroke-width="1.4" stroke-linecap="round"/>
    <text x="350" y="60" class="node-title" fill="#e0e7ff">Your Application</text>
    <text x="350" y="74" class="node-sub" fill="#818cf8">tp.emit({ type, actor, payload })</text>
  </g>

  <!-- Arrow 1→2 -->
  <line x1="420" y1="92" x2="420" y2="130" stroke="#6366f1" stroke-width="1.5" class="flow-dash" opacity="0.5"/>
  <polygon points="415,126 420,136 425,126" fill="#6366f1" opacity="0.6"/>


  <!-- ══════════════════════════════════════════════ -->
  <!-- ROW 2: EVENT BUILDER (validate + envelope)     -->
  <!-- ══════════════════════════════════════════════ -->
  <text x="295" y="134" class="step-label" fill="#0EA5E9">STEP 2</text>
  <g filter="url(#glowBlue)">
    <rect x="275" y="140" width="290" height="76" rx="14" fill="url(#validateGrad)" opacity="0.1"/>
    <rect x="275" y="140" width="290" height="76" rx="14" fill="none" stroke="#0EA5E9" stroke-width="1.5"/>
    <!-- Shield icon -->
    <path d="M308,155 C308,155 298,159 298,167 C298,175 302,181 308,184 C314,181 318,175 318,167 C318,159 308,155 308,155Z" fill="none" stroke="#93c5fd" stroke-width="1.4" stroke-linejoin="round"/>
    <polyline points="303,167 307,171 314,164" fill="none" stroke="#93c5fd" stroke-width="1.4" stroke-linecap="round" stroke-linejoin="round"/>
    <text x="330" y="161" class="node-title" fill="#dbeafe">Event Builder</text>
    <text x="330" y="174" class="node-sub" fill="#60a5fa">Validate required fields + envelope</text>
    <!-- Field pills -->
    <rect x="290" y="188" width="60" height="16" rx="8" fill="#0EA5E9" opacity="0.15"/>
    <text x="320" y="199" text-anchor="middle" class="badge-text" fill="#93c5fd">event_type</text>
    <rect x="355" y="188" width="50" height="16" rx="8" fill="#0EA5E9" opacity="0.15"/>
    <text x="380" y="199" text-anchor="middle" class="badge-text" fill="#93c5fd">actor_id</text>
    <rect x="410" y="188" width="54" height="16" rx="8" fill="#0EA5E9" opacity="0.15"/>
    <text x="437" y="199" text-anchor="middle" class="badge-text" fill="#93c5fd">tenant_id</text>
    <rect x="469" y="188" width="46" height="16" rx="8" fill="#0EA5E9" opacity="0.15"/>
    <text x="492" y="199" text-anchor="middle" class="badge-text" fill="#93c5fd">payload</text>
  </g>

  <!-- UUID + timestamp side input -->
  <g opacity="0.7">
    <rect x="610" y="150" width="130" height="42" rx="10" fill="#0EA5E9" opacity="0.08"/>
    <rect x="610" y="150" width="130" height="42" rx="10" fill="none" stroke="#0EA5E9" stroke-width="1" stroke-dasharray="4,3"/>
    <text x="675" y="168" text-anchor="middle" style="font-size:10px;font-weight:700;fill:#93c5fd">Auto-Generated</text>
    <text x="675" y="181" text-anchor="middle" style="font-size:8px;fill:#60a5fa;font-weight:500">event_id (UUID v4) + timestamp</text>
    <line x1="610" y1="171" x2="568" y2="171" stroke="#0EA5E9" stroke-width="1" stroke-dasharray="3,3" opacity="0.5"/>
    <polygon points="570,168 564,171 570,174" fill="#0EA5E9" opacity="0.5"/>
  </g>

  <!-- Arrow 2→3 -->
  <line x1="420" y1="216" x2="420" y2="254" stroke="#0EA5E9" stroke-width="1.5" class="flow-dash" opacity="0.5"/>
  <polygon points="415,250 420,260 425,250" fill="#0EA5E9" opacity="0.6"/>


  <!-- ══════════════════════════════════════════════ -->
  <!-- ROW 3: HASH CHAIN ENGINE                       -->
  <!-- ══════════════════════════════════════════════ -->
  <text x="295" y="258" class="step-label" fill="#14b8a6">STEP 3</text>
  <g filter="url(#glowTeal)">
    <rect x="275" y="264" width="290" height="76" rx="14" fill="url(#chainGrad)" opacity="0.1"/>
    <rect x="275" y="264" width="290" height="76" rx="14" fill="none" stroke="#14b8a6" stroke-width="1.5"/>
    <!-- Chain link icon -->
    <circle cx="306" cy="296" r="8" fill="none" stroke="#5eead4" stroke-width="1.3"/>
    <circle cx="318" cy="296" r="8" fill="none" stroke="#5eead4" stroke-width="1.3"/>
    <text x="336" y="290" class="node-title" fill="#ccfbf1">Hash Chain Engine</text>
    <text x="336" y="303" class="node-sub" fill="#2dd4bf">SHA-256(prev_hash + canonical_json)</text>
    <!-- Genesis pill -->
    <rect x="290" y="316" width="100" height="16" rx="8" fill="#14b8a6" opacity="0.15"/>
    <text x="340" y="327" text-anchor="middle" class="badge-text" fill="#5eead4">genesis: "0" × 64</text>
    <!-- Canonical JSON pill -->
    <rect x="396" y="316" width="90" height="16" rx="8" fill="#14b8a6" opacity="0.15"/>
    <text x="441" y="327" text-anchor="middle" class="badge-text" fill="#5eead4">sorted keys, compact</text>
  </g>

  <!-- prev_hash side input -->
  <g opacity="0.7">
    <rect x="100" y="274" width="130" height="42" rx="10" fill="#14b8a6" opacity="0.08"/>
    <rect x="100" y="274" width="130" height="42" rx="10" fill="none" stroke="#14b8a6" stroke-width="1" stroke-dasharray="4,3"/>
    <text x="165" y="292" text-anchor="middle" style="font-size:10px;font-weight:700;fill:#5eead4">Previous Hash</text>
    <text x="165" y="305" text-anchor="middle" style="font-size:8px;fill:#2dd4bf;font-weight:500">Chain continuity link</text>
    <line x1="230" y1="295" x2="272" y2="295" stroke="#14b8a6" stroke-width="1" stroke-dasharray="3,3" opacity="0.5"/>
    <polygon points="270,292 276,295 270,298" fill="#14b8a6" opacity="0.5"/>
  </g>

  <!-- Arrow 3→4 -->
  <line x1="420" y1="340" x2="420" y2="378" stroke="#14b8a6" stroke-width="1.5" class="flow-dash" opacity="0.5"/>
  <polygon points="415,374 420,384 425,374" fill="#14b8a6" opacity="0.6"/>

  <!-- Branching label -->
  <text x="420" y="400" text-anchor="middle" style="font-size:10px;font-weight:700;fill:#64748b;letter-spacing:0.08em">OPTIONAL SIGNING</text>


  <!-- ══════════════════════════════════════════════ -->
  <!-- ROW 4: SIGNER (optional) + NO SIGNER          -->
  <!-- ══════════════════════════════════════════════ -->
  <text x="162" y="408" class="step-label" fill="#f59e0b">STEP 4</text>

  <!-- Branch lines -->
  <path d="M420,400 C420,412 260,412 260,430" stroke="#f59e0b" stroke-width="1.5" class="flow-dash" opacity="0.4"/>
  <polygon points="255,426 260,436 265,426" fill="#f59e0b" opacity="0.5"/>
  <path d="M420,400 C420,412 580,412 580,430" stroke="#64748b" stroke-width="1.5" class="flow-dash" opacity="0.4"/>
  <polygon points="575,426 580,436 585,426" fill="#64748b" opacity="0.5"/>

  <!-- HMAC Signer card -->
  <g filter="url(#glowAmber)">
    <rect x="150" y="438" width="220" height="80" rx="12" fill="url(#signGrad)" opacity="0.08"/>
    <rect x="150" y="438" width="220" height="80" rx="12" fill="none" stroke="#f59e0b" stroke-width="1.2"/>
    <rect x="162" y="446" width="90" height="18" rx="9" fill="#f59e0b" opacity="0.2"/>
    <text x="207" y="459" text-anchor="middle" style="font-size:9px;font-weight:800;fill:#fde68a;letter-spacing:0.06em">HMAC-SHA256</text>
    <text x="260" y="459" text-anchor="start" style="font-size:10px;font-weight:700;fill:#fde68a">Signer</text>
    <line x1="162" y1="470" x2="358" y2="470" stroke="#f59e0b" stroke-width="0.5" opacity="0.3"/>
    <!-- Key icon -->
    <circle cx="180" cy="488" r="5" fill="none" stroke="#fcd34d" stroke-width="1.2"/>
    <line x1="185" y1="488" x2="195" y2="488" stroke="#fcd34d" stroke-width="1.2" stroke-linecap="round"/>
    <line x1="192" y1="485" x2="192" y2="491" stroke="#fcd34d" stroke-width="1.2" stroke-linecap="round"/>
    <text x="202" y="491" style="font-size:11px;font-weight:600;fill:#fef3c7">hmac-sha256:&lt;hex&gt;</text>
    <rect x="162" y="500" width="110" height="14" rx="7" fill="#f59e0b" opacity="0.1"/>
    <text x="217" y="510" text-anchor="middle" style="font-size:8px;font-weight:700;fill:#fbbf24">Proves provenance</text>
  </g>

  <!-- No signer card -->
  <g opacity="0.7">
    <rect x="470" y="438" width="220" height="80" rx="12" fill="#475569" opacity="0.08"/>
    <rect x="470" y="438" width="220" height="80" rx="12" fill="none" stroke="#475569" stroke-width="1.2"/>
    <rect x="482" y="446" width="62" height="18" rx="9" fill="#475569" opacity="0.2"/>
    <text x="513" y="459" text-anchor="middle" style="font-size:9px;font-weight:800;fill:#94a3b8;letter-spacing:0.06em">SKIP</text>
    <text x="552" y="459" text-anchor="start" style="font-size:10px;font-weight:700;fill:#94a3b8">No Signing Key</text>
    <line x1="482" y1="470" x2="678" y2="470" stroke="#475569" stroke-width="0.5" opacity="0.3"/>
    <text x="580" y="490" text-anchor="middle" style="font-size:11px;font-weight:600;fill:#cbd5e1">Hash chain alone</text>
    <text x="580" y="506" text-anchor="middle" style="font-size:9px;fill:#94a3b8">Tamper detection without provenance</text>
  </g>

  <!-- Merge to store -->
  <path d="M260,518 C260,548 400,548 420,565" stroke="#f59e0b" stroke-width="1" class="flow-solid" opacity="0.3"/>
  <path d="M580,518 C580,548 440,548 420,565" stroke="#475569" stroke-width="1" class="flow-solid" opacity="0.3"/>


  <!-- ══════════════════════════════════════════════ -->
  <!-- ROW 5: STORE (branching: memory vs JSONL)      -->
  <!-- ══════════════════════════════════════════════ -->
  <text x="345" y="568" class="step-label" fill="#22c55e">STEP 5</text>

  <!-- Branch label -->
  <text x="420" y="588" text-anchor="middle" style="font-size:10px;font-weight:700;fill:#64748b;letter-spacing:0.08em">APPEND-ONLY STORE</text>

  <!-- Branch lines -->
  <path d="M420,590 C420,602 260,602 260,620" stroke="#22c55e" stroke-width="1.5" class="flow-dash" opacity="0.4"/>
  <polygon points="255,616 260,626 265,616" fill="#22c55e" opacity="0.5"/>
  <path d="M420,590 C420,602 580,602 580,620" stroke="#38BDF8" stroke-width="1.5" class="flow-dash" opacity="0.4"/>
  <polygon points="575,616 580,626 585,616" fill="#38BDF8" opacity="0.5"/>

  <!-- Memory store card -->
  <g filter="url(#glowGreen)">
    <rect x="150" y="628" width="220" height="76" rx="12" fill="url(#memGrad)" opacity="0.08"/>
    <rect x="150" y="628" width="220" height="76" rx="12" fill="none" stroke="#22c55e" stroke-width="1.2"/>
    <rect x="162" y="636" width="70" height="18" rx="9" fill="#22c55e" opacity="0.2"/>
    <text x="197" y="649" text-anchor="middle" style="font-size:9px;font-weight:800;fill:#4ade80;letter-spacing:0.06em">DEFAULT</text>
    <text x="240" y="649" text-anchor="start" style="font-size:10px;font-weight:700;fill:#bbf7d0">Memory Store</text>
    <line x1="162" y1="660" x2="358" y2="660" stroke="#22c55e" stroke-width="0.5" opacity="0.3"/>
    <text x="260" y="678" text-anchor="middle" style="font-size:11px;font-weight:600;fill:#dcfce7">In-memory list</text>
    <text x="260" y="694" text-anchor="middle" style="font-size:9px;fill:#4ade80">Testing &amp; short-lived processes</text>
  </g>

  <!-- JSONL store card -->
  <g filter="url(#glowBlue)">
    <rect x="470" y="628" width="220" height="76" rx="12" fill="url(#jsonlGrad)" opacity="0.08"/>
    <rect x="470" y="628" width="220" height="76" rx="12" fill="none" stroke="#38BDF8" stroke-width="1.2"/>
    <rect x="482" y="636" width="96" height="18" rx="9" fill="#38BDF8" opacity="0.2"/>
    <text x="530" y="649" text-anchor="middle" style="font-size:9px;font-weight:800;fill:#93c5fd;letter-spacing:0.06em">PERSISTENT</text>
    <text x="586" y="649" text-anchor="start" style="font-size:10px;font-weight:700;fill:#dbeafe">JSONL Store</text>
    <line x1="482" y1="660" x2="678" y2="660" stroke="#38BDF8" stroke-width="0.5" opacity="0.3"/>
    <text x="580" y="678" text-anchor="middle" style="font-size:11px;font-weight:600;fill:#dbeafe">Append-only file (0o600)</text>
    <text x="580" y="694" text-anchor="middle" style="font-size:9px;fill:#60a5fa">One JSON per line · cat | jq</text>
  </g>

  <!-- Merge to verify -->
  <path d="M260,704 C260,734 400,734 420,748" stroke="#22c55e" stroke-width="1" class="flow-solid" opacity="0.3"/>
  <path d="M580,704 C580,734 440,734 420,748" stroke="#38BDF8" stroke-width="1" class="flow-solid" opacity="0.3"/>


  <!-- ══════════════════════════════════════════════ -->
  <!-- ROW 6: VERIFY + QUERY                         -->
  <!-- ══════════════════════════════════════════════ -->
  <text x="225" y="756" class="step-label" fill="#ef4444">STEP 6</text>
  <g filter="url(#glowRed)">
    <rect x="200" y="762" width="200" height="56" rx="14" fill="url(#verifyGrad)" opacity="0.1"/>
    <rect x="200" y="762" width="200" height="56" rx="14" fill="none" stroke="#ef4444" stroke-width="1.5"/>
    <!-- Checkmark icon -->
    <circle cx="232" cy="790" r="10" fill="#ef4444" opacity="0.15"/>
    <polyline points="227,790 231,794 238,785" fill="none" stroke="#fca5a5" stroke-width="2" stroke-linecap="round" stroke-linejoin="round"/>
    <text x="250" y="786" class="node-title" fill="#fef2f2">tp.verify()</text>
    <text x="250" y="800" class="node-sub" fill="#f87171">Walk chain, check every hash</text>
  </g>

  <text x="470" y="756" class="step-label" fill="#0EA5E9">STEP 7</text>
  <g filter="url(#glowBlue)">
    <rect x="440" y="762" width="200" height="56" rx="14" fill="url(#validateGrad)" opacity="0.1"/>
    <rect x="440" y="762" width="200" height="56" rx="14" fill="none" stroke="#0EA5E9" stroke-width="1.5"/>
    <!-- Search icon -->
    <circle cx="472" cy="787" r="8" fill="none" stroke="#93c5fd" stroke-width="1.3"/>
    <line x1="478" y1="793" x2="483" y2="798" stroke="#93c5fd" stroke-width="1.3" stroke-linecap="round"/>
    <text x="490" y="786" class="node-title" fill="#dbeafe">tp.query()</text>
    <text x="490" y="800" class="node-sub" fill="#60a5fa">Filter, paginate, cursor</text>
  </g>

  <!-- Converge to result -->
  <path d="M300,818 C300,840 400,840 420,852" stroke="#ef4444" stroke-width="1" class="flow-solid" opacity="0.3"/>
  <path d="M540,818 C540,840 440,840 420,852" stroke="#0EA5E9" stroke-width="1" class="flow-solid" opacity="0.3"/>


  <!-- ══════════════════════════════════════════════ -->
  <!-- ROW 7: RESULT STRIP                           -->
  <!-- ══════════════════════════════════════════════ -->
  <g filter="url(#glowBlue)">
    <rect x="150" y="856" width="540" height="50" rx="14" fill="url(#auditGrad)" opacity="0.08"/>
    <rect x="150" y="856" width="540" height="50" rx="14" fill="none" stroke="#0EA5E9" stroke-width="1.5"/>
    <!-- Lock icon -->
    <rect x="180" y="874" width="14" height="10" rx="3" fill="none" stroke="#93c5fd" stroke-width="1.3"/>
    <path d="M184,874 L184,870 C184,866 190,866 190,870 L190,874" fill="none" stroke="#93c5fd" stroke-width="1.3"/>
    <!-- Chain icon -->
    <circle cx="210" cy="880" r="5" fill="none" stroke="#60a5fa" stroke-width="1"/>
    <circle cx="220" cy="880" r="5" fill="none" stroke="#60a5fa" stroke-width="1"/>
    <text x="236" y="876" style="font-size:14px;font-weight:700;fill:#dbeafe">Tamper-Evident Audit Trail</text>
    <text x="236" y="892" style="font-size:9px;fill:#60a5fa;font-weight:500">VerifyResult { intact, total, broken }</text>
    <text x="440" y="892" style="font-size:9px;fill:#475569;font-weight:500">|</text>
    <text x="452" y="892" style="font-size:9px;fill:#60a5fa;font-weight:500">QueryResult { events, next_cursor }</text>
    <!-- Badge -->
    <rect x="586" y="870" width="86" height="22" rx="11" fill="#0EA5E9" opacity="0.15"/>
    <text x="629" y="884" text-anchor="middle" style="font-size:8px;font-weight:700;fill:#93c5fd;letter-spacing:0.05em">IMMUTABLE</text>
  </g>

</svg>
